<?xml version="1.0" standalone="no"?>
<!DOCTYPE svg PUBLIC "-//W3C//DTD SVG 1.1//EN" "http://www.w3.org/Graphics/SVG/1.1/DTD/svg11.dtd" >
<svg xmlns="http://www.w3.org/2000/svg">
<metadata></metadata>
<defs>
<font id="harry_potterregular" horiz-adv-x="712" >
<font-face units-per-em="2048" ascent="1638" descent="-410" />
<missing-glyph horiz-adv-x="500" />
<glyph horiz-adv-x="0" />
<glyph unicode="&#xd;" />
<glyph unicode=" " />
<glyph unicode="A" horiz-adv-x="1564" d="M-4 621q0 14 4 26q12 29 54 51q39 21 68 21h5q18 0 94 -8q-29 -14 -80 -47q-23 -14 -22 -46q0 -63 55 -81q23 -6 203 -25l135 1022l-88 94l301 10l389 -20l-63 -64l202 -804q23 0 64 16q22 7 54 7t73 -7l-64 -47q-8 6 -20 6q-18 0 -41 -13.5t-80 -72.5l238 -963l88 -86 h-482l70 72l-223 827q-20 -6 -86 -55q-86 -55 -174 -55h-31l-84 -510l94 -96h-512l94 96l84 479q-23 14 -71 39q-84 37 -189 102q-59 80 -59 132zM659 530q4 -4 15 -4q31 0 90 35q41 23 166 78l-139 922l-5 -5z" />
<glyph unicode="B" horiz-adv-x="1163" d="M31 -375l137 90l6 1018l-53 854l-12 41l342 -8l8 -125q175 74 223 74h2q20 -8 141 -147.5t136 -168.5q3 -15 3 -46q0 -119 -36 -478l-41 -72q115 -88 217 -249q3 -14 3 -42q0 -117 -46 -481l-45 -139q-39 -35 -125 -88q-31 -10 -107 -10q-80 0 -112 10q-43 14 -230 197 l-8 -254zM446 -53q285 -47 388 -84q24 24 24 257v19q0 119 -6 281q2 12 2 24q0 52 -37 91q-37 33 -72 57q-84 63 -143 80l-129 12zM449 793q174 -29 339 -64q-2 41 -14 508q4 16 4 31q0 57 -43 98q-33 33 -49 33q-59 26 -141 26h-6q-41 0 -82 -6z" />
<glyph unicode="C" horiz-adv-x="1132" d="M0 1075l57 144q34 -31 74 -31q10 0 21 2q29 10 38 45t19 72q16 23 65 61q123 98 400 270q10 1 20 1q114 0 254 -126q55 -80 56 -147q0 -43 -21 -70q-51 -55 -344 -221q-29 -14 -127 -71v-1067q68 -158 172 -177h11q73 0 146 50q79 54 83 118q4 72 4 135q0 160 -29 256 q-31 12 -72 13q-76 0 -153 -49l110 174q82 32 127 32q12 0 21 -2q201 -75 201 -239v-6q-1 -70 -1 -157t1 -191q-31 -92 -188 -198t-249 -106q-223 0 -360 177q-39 53 -70 104q-74 125 -92 223l-22 953zM522 1190q86 14 152 74q16 18 33 39q35 51 49 104q-33 12 -64 12 t-53 -12q-25 -18 -47 -45q-49 -68 -70 -172z" />
<glyph unicode="D" horiz-adv-x="1050" d="M0 -385l154 102l6 994l-54 833l-14 51l254 -16v-119q137 158 295 178q201 0 264 -61q90 -88 90 -385v-1126q2 -14 2 -29q0 -156 -196 -305q-10 -4 -70 -54q-39 -32 -64 -32q-7 0 -12 2q-35 12 -163 82q-135 72 -160 96l-8 -236zM352 1305l8 -1274q158 -72 295 -72 q27 0 45 2q16 66 29 203q35 329 53 964q4 20 4 43q0 86 -41 170q-94 74 -118 74q-8 0 -9 -6z" />
<glyph unicode="E" horiz-adv-x="1320" d="M0 752q0 20 12 36q50 48 224 48h34q-49 -12 -84 -43q-39 -39 -39 -48q0 -12 33 -26q25 -10 105 -23v39l-54 850l-14 53l365 -8l6 -121q311 29 438 29q34 0 55 -2l152 80l6 -275l-184 68l-437 -63l-36 -674q55 0 80 4q92 18 327 100q76 23 176 23q37 0 74 -4 q-256 -96 -416 -211q-47 -37 -125 -52q-59 -10 -118 -18l4 -590l719 33l18 -141l-762 -226l25 121l-461 -90l156 105l6 788q-131 29 -179 72q-106 96 -106 166z" />
<glyph unicode="F" horiz-adv-x="1118" d="M0 -383l158 104l2 969l28 842l-94 106l365 -8l8 -121q311 29 438 29q34 0 56 -2l151 78l6 -275l-184 68l-438 -61l-33 -598l526 49l94 96l7 -287l-91 58l-526 -103l-29 -971z" />
<glyph unicode="G" horiz-adv-x="1404" d="M0 1075l57 144q34 -31 74 -31q10 0 21 2q29 10 38 45t19 72q16 23 65 61q123 98 400 270q10 1 20 1q113 0 254 -126q55 -80 56 -147q0 -43 -21 -70q-51 -55 -344 -221q-29 -14 -127 -71v-525q64 8 124 8q43 0 85 -4q289 -27 371 -61q68 -29 149 -86q98 -72 123 -125 q41 -86 41 -150q0 -77 -68 -77q-70 0 -207 59q2 -74 3 -149q-31 -92 -188 -198t-249 -106q-223 0 -360 177q-39 53 -70 104q-74 125 -92 223l-8 309q-37 12 -139 56l77 12q23 -2 62 -4l-14 580zM512 -63q68 -158 172 -177h11q74 0 147 50q78 55 83 118.5t5 122.5 q0 160 -31 264q-68 29 -162 35q-59 4 -156 4h-69v-417zM522 1190q86 14 152 74q16 18 33 39q35 51 49 104q-33 12 -64 12t-53 -12q-25 -18 -47 -45q-49 -68 -70 -172zM1128 197q-1 -8 -1 -28q0 -39 3 -122q17 -2 32 -2q30 0 52 8q53 23 54 33q0 10 -22 33t-118 78z" />
<glyph unicode="H" horiz-adv-x="1542" d="M0 721q0 14 6 29q10 29 55 53q39 21 68 21q5 0 10 -1q20 0 101 -8q-31 -14 -84 -49q-25 -16 -25 -49q0 -68 59 -86q25 -8 160 -49v897l-94 100h504l-53 -53v-903q6 -4 14 -5q35 0 98 37q43 27 176 84v832l-67 67h479l-68 -67v-713q25 0 68 16q24 8 58 8t77 -8l-67 -51 q-8 6 -23 6q-20 0 -43 -13t-86 -77v-1056l92 -93h-512l76 76l16 916q-23 -8 -92 -60q-92 -59 -184 -59h-35v-629l102 -100h-546l100 100v596q-23 14 -76 41t-108 53q-78 39 -93 58q-63 84 -63 139z" />
<glyph unicode="I" horiz-adv-x="454" d="M20 848l76 -49l-53 790l-14 49l360 -6l6 -114l17 -777l-39 -479l-97 154l-22 -465l-76 98l-31 -459l-112 785l67 -58z" />
<glyph unicode="J" horiz-adv-x="878" d="M0 -145l326 -11l-150 -77q66 -90 105 -97q14 2 34 15q51 31 134 108l34 1831q-2 10 0 14v-14q6 -31 49 -104q34 -54 347 -435l-140 -18v-1239l-501 -238l-220 185z" />
<glyph unicode="K" horiz-adv-x="1368" d="M12 -408q-5 -1 -8 -1q-6 0 -6 4q0 22 139 153l94 1436l-217 -107q332 420 424 561l58 -813l591 779l281 -420l-281 -33q-336 -412 -405 -467l405 -467l281 -94l-506 -348l15 260l-412 487l-64 -774q57 -55 140 -158z" />
<glyph unicode="L" horiz-adv-x="1189" d="M0 1028q287 338 381 479q25 39 55 117v14q2 -6 0 -14l43 -1851l418 -4q14 2 29 12q35 29 75 96l-24 90l213 21l-27 -219l-223 -179h-784v1420z" />
<glyph unicode="M" horiz-adv-x="2158" d="M0 1343l29 95l262 200l495 -358l340 -1059l330 826l-139 253l430 -8l-82 -219l346 -1145l148 -264l-471 -74l96 289l-246 797l-328 -719l156 -283l-532 -18l153 246l-242 784l-346 -760l121 -311l-479 51l160 258l409 946q-248 664 -280 666q-14 0 -31 -10 q-41 -27 -96 -94l151 -115z" />
<glyph unicode="N" horiz-adv-x="1499" d="M0 -195l125 101l10 1632l-115 100h629l-69 -53l-9 -98l566 -1215l28 1254l-157 112l481 -14l-84 -68l-21 -1873l115 -93l-522 15l94 76l-2 139l-633 1397l-30 -1262l274 -150h-680z" />
<glyph unicode="O" horiz-adv-x="1196" d="M0 1075l59 144q36 -31 76 -31q10 0 21 2q29 10 39 45t20 72q16 23 68 61q125 98 409 270q10 1 20 1q117 0 263 -126q123 -117 158 -215q53 -147 61 -526q2 -125 2 -227q0 -334 -31 -494q-29 -141 -102 -229q-193 -231 -346 -232q-231 0 -371 177q-41 53 -72 104 q-76 125 -96 223l-22 953zM524 -63q30 -148 114 -148q9 0 19 2q35 12 66 33q71 49 102 129l-2 1208q-100 -53 -166 -86q-31 -14 -133 -71v-1067zM537 1190q90 14 155 74q18 18 33 39q37 51 51 104q-33 12 -63 12q-33 0 -56 -12q-27 -18 -49 -45q-51 -68 -71 -172z" />
<glyph unicode="P" horiz-adv-x="948" d="M61 848l70 -49l-49 790l-14 49l340 -6l6 -114q149 64 196 64q5 0 8 -1q23 -6 137 -137t126 -158q3 -15 3 -49q0 -115 -32 -446l-70 -119q-57 -59 -82.5 -70.5t-91.5 -15.5q-18 -1 -33 -1q-45 0 -61 9q-12 6 -25 24q-29 39 -61 123l-35 -479l-92 154l-20 -465l-72 98 l-27 -459l-106 785l63 -58zM408 862q128 -23 171 -23q8 0 13 1q11 26 11 204q0 119 -5 306q6 27 6 47q0 47 -26 51q-23 0 -164 -21zM492 756q8 -58 42 -58h1q22 10 63 43z" />
<glyph unicode="Q" horiz-adv-x="1378" d="M0 1122l55 131q32 -29 66 -29q10 0 20 3q29 8 38 40.5t18 65.5q14 20 63 58q113 90 375 247q9 1 17 1q109 0 241 -115q115 -106 147 -197q47 -135 54 -483q4 -115 4 -209q0 -455 -80 -600q31 -8 51 -19q68 -27 148 -86q98 -70 122 -123q39 -86 39 -147q1 -52 -30 -70 q-12 -6 -37 -6q-76 0 -211 62q18 -3 35 -3q29 0 55 9q53 23 53 33t-18 30q-72 70 -318 183q-135 -137 -250 -138q-125 0 -207.5 46.5t-158.5 150.5q-55 10 -275 96l76 13q63 -4 137 -9q-27 47 -65 166l-23 873zM481 78q26 -135 103 -135q9 0 18 2q33 12 62 30q65 45 94 117 l-2 1110q-92 -49 -154 -80q-27 -14 -121 -65v-979zM494 1227q80 12 141 67q16 16 31 35q33 47 45 96q-29 12 -58 13q-31 0 -53 -14.5t-41 -39.5q-47 -61 -65 -157z" />
<glyph unicode="R" horiz-adv-x="1673" d="M0 -242l20 80q15 -3 28 -3q49 0 75 36q82 141 82 260v1069l-92 10l10 68l381 360l31 -213l323 179q166 -166 215 -326q31 -113 31 -154q0 -63 -51 -94q-12 -8 -67.5 -75.5t-121.5 -110.5l520 -723l289 -88l-565 -160l41 197l-576 733q102 88 156 145q68 78 68 201 q0 78 -31 106q-29 20 -92 21q-59 0 -139 -21v-1452q76 -82 184 -112q106 -23 155 -23v-78q-297 20 -503 78q-92 29 -371 90z" />
<glyph unicode="S" horiz-adv-x="1028" d="M0 748q-4 41 -4 81q0 122 37 234l651 575q298 -413 298 -512q0 -4 -1 -8q-18 -20 -59 -53q-100 -76 -308 -199l-43 54q57 53 77 109t20 126q0 145 -76 150h-7q-67 0 -139 -70q-76 -74 -90 -178q-2 -6 -32 -172q-20 -105 -20 -140q0 -6 1 -10q106 4 187 4q129 0 192 -10 q123 -29 178 -57q70 -35 113 -103q53 -92 53 -225q0 -112 -43 -229l-692 -525q-257 424 -257 529q0 8 1 14q18 18 63 47q106 68 322 174l39 -55q-113 -51 -150 -166q-6 -33 -6 -63q0 -137 107 -154q4 -1 8 -1q54 0 119 103q57 86 104 215q16 49 16 113q0 86 -32 168 l-531 -88q-63 160 -96 322z" />
<glyph unicode="T" horiz-adv-x="1992" d="M0 1290l119 45q260 14 391 37q27 6 162 53l-2 213l321 -59l4 -74q33 4 60 4q118 5 212 5q252 0 337 -35q94 -41 204 -138q131 -117 156 -219q29 -115 29 -215q0 -160 -70 -217q-32 -24 -93 -24h-5q-111 0 -269 75q9 -1 19 -1q64 0 125 36q82 53 102 74q47 43 47 96 q0 10 -2 19q-29 180 -180 298.5t-356 118.5q-37 0 -76 -4q-94 -16 -252 -37l-29 -1617l119 -134h-524l133 119l6 1573q-88 -25 -227 -51q-49 -23 -129 -23q-147 0 -332 82z" />
<glyph unicode="U" horiz-adv-x="1286" d="M0 1468l479 58l-139 -156l25 -369l157 -1044q24 -154 136 -154h6q47 10 88 37q98 66 137 199l57 1429l-178 164l518 6l-55 -75v-723v4q-12 -553 -33 -711q-25 -201 -106 -299q-203 -244 -367 -244q-244 0 -393 189q-43 55 -76 110q-80 131 -100 236l-27 1010l-53 251z " />
<glyph unicode="V" horiz-adv-x="1343" d="M0 1485l489 153l-69 -366l348 -948l225 729l-164 366h514l-141 -336l-409 -1493l-607 1590z" />
<glyph unicode="W" horiz-adv-x="2691" d="M0 1511l530 127l-98 -170l416 -1036l287 764l-211 270l606 76l-146 -264l373 -770l303 807l-176 303h555l-151 -277l-353 -1007q362 -645 404 -645q14 4 33 16q43 31 98 107l-186 98l407 10l-22 -98l-275 -232l-612 312l-518 1036l-392 -1112l-684 1544z" />
<glyph unicode="X" horiz-adv-x="1912" d="M0 1530l631 90l-90 -219l450 -572l361 590l-211 219h661l-180 -200l-446 -770l516 -809l221 -211l-637 -58l110 230l-360 588l-45 38l-403 -591l188 -250l-660 45l199 203l512 792l-577 703z" />
<glyph unicode="Y" horiz-adv-x="1765" d="M-614 -717q0 16 6 33q14 35 41 72q68 88 184 166l340 -50l-33 -71q-46 9 -97 9q-17 0 -34 -1q-57 -4 -94 -37t-37 -70q0 -27 19 -45q29 -14 106 -28q188 -35 596 -60l354 600l-434 1604l-100 49v51l628 13l13 -64l-172 -43l286 -1180l484 1135l-125 100l502 13l-76 -101 q-305 -778 -445 -1042q-164 -317 -325 -637q-297 -569 -414 -723q-664 57 -878 125q-195 76 -203 80q-92 45 -92 102z" />
<glyph unicode="Z" horiz-adv-x="1536" d="M0 -410l1145 1854l-783 33l-278 -424l29 585l1396 -65l-1063 -1723l895 130l140 585l55 -813z" />
<glyph unicode="a" horiz-adv-x="751" d="M25 137q-7 63 -7 113q0 95 25 145q16 35 137 164l191 -8v-43q-96 -41 -113 -86q-2 -12 -2 -43q0 -98 14 -207q14 -133 39 -147q14 -8 33 -9q33 0 64 25v795q-12 23 -41 23q-16 0 -37 -7q-57 -18 -62 -21q-27 -10 -59 -38q-12 -12 -23 -31q-25 -41 -30 -98q-39 63 -78 137 q-20 47 -21 106q0 25 4 49l293 156l316 -315v-713h73l-198 -258q-25 -9 -48 -9q-17 0 -34 5q-23 18 -60 96q-109 -61 -151 -92q-27 -20 -62 -21q-35 0 -59.5 19.5t-60.5 138.5q-35 109 -43 174z" />
<glyph unicode="b" horiz-adv-x="1019" d="M0 1085q260 305 346 435q23 37 49 108v10q2 -4 0 -10l35 -588v-1247q129 -82 174 -88q16 0 98 62l33 426q6 80 6 141q0 156 -32 182q-7 1 -15 1q-76 0 -200 -105l6 192q78 70 205 70q35 0 63 -4q49 -14 92 -37q103 -60 160 -164q-10 -592 -55 -700q-33 -49 -324 -179h-8 q-106 0 -492 238v1239z" />
<glyph unicode="c" horiz-adv-x="739" d="M-4 307l67 400l345 204l262 -131l32 -92l-350 -26l148 100q-51 41 -117 41q-31 -10 -88 -129q-84 -168 -90 -389q-2 -12 -2 -29q0 -72 35 -221q35 -147 57 -207q100 29 170 57l-96 156l311 -168l-66 -70l-374 -108l-230 328z" />
<glyph unicode="d" horiz-adv-x="980" d="M-14 98q0 174 14 432q102 156 260 177q63 7 115 6q84 0 139 -17l-6 -260q-117 117 -192 117h-9q-49 -36 -49 -291v-20v-418q55 -59 94 -68q16 0 230 125l49 1757l350 -526l-137 -6l-27 -1206q-229 -309 -438 -310q-59 0 -100 25q-92 63 -146 106q-104 82 -125.5 126 t-21.5 251z" />
<glyph unicode="e" horiz-adv-x="768" d="M27 96l36 754q168 168 326 235q29 10 57 11q74 0 156 -70q47 -47 96 -94q45 -68 45 -463l-108 16l-127 29l-182 64q-18 -223 -19 -373q0 -115 10 -164q31 -123 80 -123q16 0 36 15.5t40 54.5q47 94 98 280q113 -113 113 -147q-4 -14 -59 -98q-150 -195 -199 -218 q-9 -1 -19 -1q-45 0 -126 20zM317 668l181 -19q-14 74 -54 217q-6 23 -28.5 54.5t-40.5 31.5q-20 0 -31 -39q-27 -111 -27 -245z" />
<glyph unicode="f" horiz-adv-x="854" d="M-20 86l26 147h189l10 787l448 209l197 -166l14 -72l-291 10l136 70q-57 80 -95 88q-16 0 -149 -110v-842h174l6 -141h-188l6 -723l84 -136l-406 -26l88 121l-34 823z" />
<glyph unicode="g" horiz-adv-x="878" d="M-518 -1114q0 31 10 67q27 90 94 187l283 65l-6 -67q-51 -8 -105 -33q-73 -37 -73 -98q0 -39 30 -54q7 -1 15 -1q112 0 565 145l139 536q-299 31 -299 74q0 2 2 4q-51 53 -51 240q0 127 23 264q23 129 49 170q121 182 151 215q135 152 291 168l31 -96l198 145 q-8 -92 -63 -461q-39 -248 -76 -493q-16 -117 -74 -398q-68 -319 -114 -491q-541 -156 -729 -168q-182 0 -199 2q-90 12 -92 78zM223 33q-1 -14 -1 -27q0 -178 155 -178q39 0 86 12l129 654h-137l-140 -150z" />
<glyph unicode="h" horiz-adv-x="1071" d="M12 -410q-5 -2 -8 -2q-5 0 -5 4q0 21 138 154l92 1430l-215 -107q268 315 355 449q51 80 51 114v6q2 -2 0 -6l26 -446l17 -602q123 63 262 63q45 0 78 -6q115 -23 176 -76q49 -45 84 -129q8 -20 8 -74q0 -109 -40 -377t-40 -286q0 -23 47 -109l-372 17q12 2 28 12 q39 27 94 96l31 451q-23 238 -92 278q-12 4 -33 5q-51 0 -133 -23q-72 -20 -104 -39l-56 -641q82 -131 123 -139z" />
<glyph unicode="i" horiz-adv-x="690" d="M37 449l211 235l151 184l23 -174v-137l6 -993q57 -74 131 -92.5t109 -18.5v-63q-209 16 -357 63q-66 23 -262 74l14 65q11 -2 20 -2q35 0 54 29q57 113 58 211q0 45 4 602zM106 1112q0 74 49.5 125t118.5 51q70 0 119 -51t49 -125q0 -72 -49 -124t-119 -52t-119 52 t-49 124z" />
<glyph unicode="j" horiz-adv-x="518" d="M-395 -1094l317 -20l-149 -90q41 -72 80 -72q20 0 34 19q33 23 197 186l55 1640l-129 129l443 23l-99 -160v-665l-30 -1045l-496 -266l-209 225zM43 1206q0 80 60.5 137.5t146.5 57.5t146.5 -57.5t60.5 -137.5q0 -82 -60.5 -138t-146.5 -56t-146.5 56t-60.5 138z" />
<glyph unicode="k" horiz-adv-x="1189" d="M12 -393q-5 -2 -8 -2q-5 0 -5 4q0 20 136 151l94 1424l-215 -107q266 313 355 447q49 80 51 114l-19 -458l7 -672l348 197l92 122l121 -282l-140 22q-219 -152 -348 -207l480 -493l223 -68l-398 -209l31 170l-438 490l-45 -479q68 -55 133 -148z" />
<glyph unicode="l" horiz-adv-x="524" d="M12 -410q-5 -2 -8 -2q-5 0 -5 4q0 21 138 154l92 1430l-215 -107q268 315 355 449q51 80 51 114v6q2 -2 0 -6l-19 -1886q82 -131 123 -139z" />
<glyph unicode="m" horiz-adv-x="1814" d="M-111 807l21 57l182 123l326 -194l123 -248l350 203q29 23 57 22q84 0 166 -162l348 203q16 14 37 14q61 0 143 -106q59 -74 107 -166q14 -27 14 -107q0 -113 -32 -380q-27 -236 -27 -271q0 -25 55 -106l-364 -17q10 2 26 15q37 31 84 102l19 541q1 16 1 31 q0 208 -103 208h-1q-20 0 -39 -8q-70 -51 -192 -137q12 -25 12 -86q0 -100 -37 -350q-32 -217 -32 -257v-5q2 -23 53 -101l-365 -18q12 4 29 16q37 31 84 101l18 540q1 16 1 32q0 210 -103 210q-20 0 -39 -8q-102 -45 -258 -146l-27 -555q90 -119 133 -125l-497 -59 q-6 -2 -8 -2q-5 0 -5 5q0 23 119 159l54 731q-178 416 -203 418h-1q-15 0 -87 -66l106 -72z" />
<glyph unicode="n" horiz-adv-x="1112" d="M-16 -440q-5 -2 -8 -2q-5 0 -5 4q0 20 133 149l107 809l-211 -102q180 190 276 299q61 59 125 133l23 -318l364 173q16 10 35 10q61 0 135 -115q54 -80 95 -180q6 -16 6 -51q0 -100 -58.5 -391t-58.5 -312q0 -23 45 -106l-364 14q12 2 28 14q39 27 92 93l66 536 q6 47 6 86q0 164 -94 164q-18 0 -33 -6q-106 -35 -270 -121l-53 -629q80 -127 120 -137zM401 809v6v-6z" />
<glyph unicode="o" horiz-adv-x="808" d="M-72 442l41 82q22 -18 48 -18q8 0 16 2q20 4 27.5 23.5t13.5 41.5q10 12 45 35q86 55 278 150q8 1 16 1q78 0 175 -71q84 -66 108 -119q35 -84 41 -297q1 -60 1 -113q0 -175 -15 -261q-18 -102 -76 -158q-129 -131 -233 -131q-156 0 -252 100q-27 29 -49 60 q-51 70 -64 125l-16 532zM285 -197q18 -83 77 -83q5 0 11 1q53 38 114 93l-2 678q-68 -31 -112 -50q-20 -8 -88 -39v-600zM293 508q59 8 104 41q21 17 58 80q-24 7 -44.5 7t-37.5 -7q-18 -10 -33 -25q-35 -39 -47 -96z" />
<glyph unicode="p" horiz-adv-x="886" d="M-2 596l307 262l49 -8l19 -217l243 47q18 12 39 12q53 0 101 -102q29 -74 49 -250q16 -154 16 -285q0 -92 -8 -106q-53 -80 -192 -137q-121 -43 -244 -88l-8 -936l80 -39l18 -41l-434 6v49l98 78l43 1726zM371 -35q70 20 137 39q61 25 92 105q25 63 25 127q0 121 -68 186 q-14 12 -37 22q-55 23 -147 31z" />
<glyph unicode="q" horiz-adv-x="831" d="M33 -182q0 125 16 270q18 168 47 240q56 131 109 131h6l264 127l53 141l215 -190l-110 -58l14 -1231l322 56l-113 -168h-207l4 -363l95 -76v-47l-404 -2l18 39l76 37l8 391l-309 -63l96 176h213l7 453q-37 14 -86 14q-41 0 -117 -14.5t-107 -14.5q-70 0 -102 51 q-8 12 -8 101zM215 18q0 -59 18 -108q29 -70 58 -70q18 0 61 21q70 35 105 49v483q-113 -70 -158 -112q-27 -27 -53 -99q-31 -84 -31 -164z" />
<glyph unicode="r" horiz-adv-x="669" d="M-51 -129l14 49q8 -1 16 -1q37 0 56 24q57 86 57 161v674l-65 6l8 43l262 228l20 -135l129 86q113 -107 148 -207q20 -70 20 -94q0 -39 -34 -62q-25 -14 -191 -121l-29 37q45 25 50 68q0 137 -29 157q-37 29 -64 29v-913q57 -57 129 -71.5t107 -14.5v-50q-205 12 -348 50 q-63 18 -256 57z" />
<glyph unicode="s" horiz-adv-x="710" d="M27 514q-3 26 -3 51q0 76 23 148l410 362q188 -260 188 -322v-5q-12 -18 -231 -160l-27 35q35 33 47 68.5t12 78.5q0 92 -47 94h-4q-41 0 -86 -41q-49 -49 -59 -114q0 -4 -19 -109q-14 -78 -13 -94q65 2 116 2q83 0 123 -6q141 -33 184 -101q33 -57 33 -141 q0 -71 -27 -145l-436 -330q-163 268 -163 334q0 5 1 8q14 16 244 139l24 -35q-78 -35 -94 -104q-6 -20 -6 -41q0 -86 68 -96h5q68 0 142 200q10 31 10 70q0 55 -22 107l-332 -56q-41 100 -61 203z" />
<glyph unicode="t" horiz-adv-x="774" d="M-78 778q260 305 281 434q23 37 49 109v10q2 -4 0 -10l27 -430h210l-8 -158h-194l16 -870q123 -115 168 -117q6 -12 18 -12q27 0 70 59l-149 78l325 8l-18 -78l-232 -211l-424 263v907z" />
<glyph unicode="u" horiz-adv-x="1112" d="M-152 475l396 377q2 2 2 4l-2 -4q-27 -36 -27 -282v-35l76 -500q31 -205 123 -205q25 0 49 16q86 57 211 177l-107 581q-102 92 -143 92h-2l448 140q6 4 9 4q4 0 4 -6q0 -26 -84 -166l147 -893l152 -133q-266 -39 -340 -76q14 152 18 151l-18 95q-160 -123 -326 -211 q-18 -8 -41 -9q-115 0 -268 199q-37 47 -59 359q-27 340 -31 351t-37 11q-51 0 -150 -37z" />
<glyph unicode="v" horiz-adv-x="1130" d="M-55 981l399 96l-57 -227l284 -590l228 608l-133 228h417l-112 -209l-381 -1082l-494 988z" />
<glyph unicode="w" horiz-adv-x="1468" d="M-74 582l338 82l-49 -195l242 -498l182 488l-133 172l385 47l-92 -168l235 -490l195 515l-113 192h352l-96 -176l-223 -641q229 -410 256 -410q14 0 84 76l-119 64l258 8l-12 -64l-176 -147l-389 196l-330 662l-248 -709l-418 836z" />
<glyph unicode="x" horiz-adv-x="1204" d="M-55 780l397 58l-57 -138l284 -360l183 252l-134 137h418l-114 -125l-236 -366l326 -508l139 -136l-401 -34l69 145l-227 369l-29 24l-254 -372l119 -158l-416 29l125 129l324 499l-365 441z" />
<glyph unicode="y" horiz-adv-x="1296" d="M-1143 -797q0 14 6 31q16 39 45 78q72 94 197 178l356 -53l-28 -60q-52 10 -102 10q-18 0 -36 -1q-66 -4 -110.5 -43t-44.5 -84q0 -31 27.5 -52.5t115.5 -37.5q211 -39 668 -66l457 698l-209 901l-185 82v37l537 4l20 -71l-110 -27l131 -604l391 668l-123 98l508 12 l-180 -137q-299 -553 -496 -854q-84 -143 -266 -426q-221 -342 -363 -531q-670 58 -859 58h-27q-82 29 -242 98q-78 43 -78 94z" />
<glyph unicode="z" horiz-adv-x="1009" d="M16 397l19 369l880 -41l-596 -879l564 82l88 369l37 -512l-969 -102l594 880l-463 31z" />
<glyph unicode="&#xa0;" />
<glyph unicode="&#xc4;" horiz-adv-x="1243" d="M0 408q0 31 36 55t68 22q14 0 74 -6q-23 -12 -61 -39q-18 -10 -19 -34q0 -49 43 -66q18 -6 160 -18l109 808l-70 76l238 8l309 -16l-51 -51l161 -637q18 0 52 12q35 12 98 0l-49 -37q-18 10 -49 -6q-16 -10 -64 -57l191 -762l67 -70h-381l56 56l-177 657q-18 -6 -69 -43 q-68 -45 -137 -45h-25l-68 -405l76 -74h-405l73 74l68 380q-18 12 -57 31q-66 31 -150 82q-47 63 -47 105zM307 1513q0 49 38 85t91 36t90 -36t37 -85t-37 -84.5t-90 -35.5t-91 35.5t-38 84.5zM526 334q4 -2 11 -2q27 0 73 28q31 19 131 62l-110 729l-4 -2zM696 1518 q0 51 37 85.5t90 34.5t91 -34.5t38 -85.5q0 -49 -37.5 -84t-91.5 -35q-53 0 -90 34.5t-37 84.5z" />
<glyph unicode="&#xc5;" horiz-adv-x="1183" d="M0 369q0 31 34 53t64 20q16 0 72 -6q-23 -10 -59 -37q-18 -10 -19 -32q0 -47 43 -62q16 -6 152 -18l102 770l-65 71l227 9l293 -17l-47 -47l153 -608q16 0 47 12q35 12 97 0l-50 -35q-16 10 -47 -6q-14 -8 -59 -53l180 -727l66 -66h-363l53 54l-167 626q-16 -6 -66 -43 q-66 -41 -131 -41h-25l-63 -387l72 -71h-388l72 71l64 363q-16 12 -54 31q-63 27 -143 77q-45 59 -45 99zM403 1483q0 66 49.5 110.5t116.5 44.5q70 0 119 -44.5t49 -110.5q0 -63 -49 -109.5t-119 -46.5q-68 0 -117 46t-49 110zM500 299q6 -2 12 -2q23 0 70 27q29 16 125 59 l-107 694l-4 -2z" />
<glyph unicode="&#xd6;" horiz-adv-x="1085" d="M14 922l43 104q41 -31 84 -20q31 10 41.5 43.5t18.5 64.5q14 20 59 55q111 84 361 236q106 8 239 -109q133 -125 170 -297q19 -84 23 -356q2 -111 2 -201q0 -299 -27 -438q-25 -125 -90 -201q-166 -203 -299 -202q-201 0 -324 153q-35 47 -61 92q-68 109 -84 195l-23 856 zM147 1497q0 43 32 72.5t79 29.5q45 0 78 -29.5t33 -72.5t-33 -72.5t-78 -29.5q-47 0 -79 29.5t-32 72.5zM457 -102q29 -141 114 -142q10 0 17 2q35 12 61 33q67 45 96 121l-2 1096q-102 -55 -163 -86q-27 -12 -123 -68v-956zM465 1004q96 14 160 69q16 16 30 37 q34 49 50 104q-39 14 -72 15q-33 0 -53 -12q-82 -45 -115 -213zM854 1526q0 43 33 72.5t78 29.5q47 0 78.5 -29.5t31.5 -72.5t-31.5 -73t-78.5 -30q-45 0 -78 30t-33 73z" />
<glyph unicode="&#xe4;" horiz-adv-x="722" d="M16 958q0 51 39 88t95 37q55 0 94 -37t39 -88t-39 -87.5t-94 -36.5t-94.5 36.5t-39.5 87.5zM61 -109q-18 166 15 234q16 31 125 147l170 -8v-39q-86 -37 -101 -78q-8 -39 6 -184q14 -158 41 -172q12 -8 29 -8q29 0 55 22v715q-14 31 -69 15q-51 -16 -53 -19 q-25 -10 -56 -35q-10 -10 -20 -26q-20 -37 -27 -90q-35 57 -70 124q-18 43 -18 97q0 20 4 43l264 139l283 -283v-641h66l-179 -231q-39 -16 -73 -4q-20 16 -54 86q-96 -53 -137 -82q-25 -18 -55 -19q-31 0 -52.5 17.5t-56.5 124.5q-31 98 -37 155zM371 940q0 51 39 88t94 37 t95 -37t40 -88t-40 -88t-95 -37t-94 37t-39 88z" />
<glyph unicode="&#xe5;" horiz-adv-x="649" d="M16 -121q-16 158 17 221q14 31 117 142l163 -9v-36q-82 -35 -96 -74q-8 -39 6 -176q14 -150 39 -164q12 -8 27 -8q29 0 53 22v680q-14 31 -66 17q-49 -16 -51 -19q-23 -10 -53 -35q-10 -10 -18 -24q-20 -35 -25 -86q-35 55 -68 119q-18 41 -18 92q0 20 4 41l252 133 l270 -271v-610h62l-170 -221q-35 -16 -70 -4q-18 14 -51 82q-92 -51 -131 -78q-23 -18 -51 -19q-31 0 -51.5 17.5t-53.5 118.5q-31 94 -37 149zM195 965q0 49 36.5 83.5t90.5 34.5q53 0 90 -34.5t37 -83.5t-37 -84t-90 -35t-90 34.5t-37 84.5z" />
<glyph unicode="&#xf6;" horiz-adv-x="786" d="M-51 399l39 78q29 -23 63 -16q18 6 24.5 24.5t13.5 37t314 182.5q82 8 187 -68q80 -63 104 -117q35 -80 39 -287q6 -256 -14 -364q-16 -98 -72 -154q-125 -125 -227 -125q-152 0 -244 97q-27 29 -47 57q-51 68 -63 121l-15 518zM16 940q0 51 40 88t96 37q55 0 95 -37 t40 -88q0 -53 -40 -90t-95 -37t-95.5 37t-40.5 90zM293 -221q20 -88 88 -80q52 37 111 88l-3 659q-66 -29 -108 -47q-20 -8 -88 -39v-581zM301 461q59 8 102 41q21 15 56 78q-45 12 -78 0q-18 -10 -33 -25q-33 -37 -47 -94zM449 903q0 51 39.5 88t95.5 37q55 0 95 -37 t40 -88q0 -53 -40 -90t-95 -37t-95 37t-40 90z" />
<glyph unicode="&#x2000;" horiz-adv-x="819" />
<glyph unicode="&#x2001;" horiz-adv-x="1639" />
<glyph unicode="&#x2002;" horiz-adv-x="819" />
<glyph unicode="&#x2003;" horiz-adv-x="1639" />
<glyph unicode="&#x2004;" horiz-adv-x="546" />
<glyph unicode="&#x2005;" horiz-adv-x="409" />
<glyph unicode="&#x2006;" horiz-adv-x="273" />
<glyph unicode="&#x2007;" horiz-adv-x="273" />
<glyph unicode="&#x2008;" horiz-adv-x="204" />
<glyph unicode="&#x2009;" horiz-adv-x="327" />
<glyph unicode="&#x200a;" horiz-adv-x="91" />
<glyph unicode="&#x202f;" horiz-adv-x="327" />
<glyph unicode="&#x205f;" horiz-adv-x="409" />
<glyph unicode="&#x25fc;" horiz-adv-x="839" d="M0 0v840h840v-840h-840z" />
</font>
</defs>
</svg>
